{"title":"I.Do.2012.WEBRip XViD juggs","uid":8534121,"size":741386983,"categoryP":"video","categoryS":"movies","magnet":"?xt=urn:btih:9c1d5258cb15d8f4e5090d47c3833ef820492e92&amp;dn=I.Do.2012.WEBRip+XViD+juggs&amp;tr=udp%3A%2F%2Ftracker.openbittorrent.com%3A80&amp;tr=udp%3A%2F%2Fopen.demonii.com%3A1337&amp;tr=udp%3A%2F%2Ftracker.coppersurfer.tk%3A6969&amp;tr=udp%3A%2F%2Fexodus.desync.com%3A6969","seeders":7,"leechers":2,"uploader":"juggs99","files":3,"time":1370222959,"description":"Source : WEBiOS(Thanks)\n &lt;a href=&quot;\nhttp://www.imdb.com/title/tt2102499/&quot; rel=&quot;nofollow&quot; target=&quot;_NEW&quot;&gt;\nhttp://www.imdb.com/title/tt2102499/&lt;/a&gt;\n\nFormat : AVI\nFormat/Info : Audio Video Interleave\nFile size : 697 MiB\nDuration : 1h 30mn\nOverall bit rate : 1 078 Kbps\nWriting library : VirtualDub build 32842/release\n\nVideo\nID : 0\nFormat : MPEG-4 Visual\nFormat profile : Advanced Simple@L5\nFormat settings, BVOP : 2\nFormat settings, QPel : No\nFormat settings, GMC : No warppoints\nFormat settings, Matrix : Default (H.263)\nMuxing mode : Packed bitstream\nCodec ID : XVID\nCodec ID/Hint : XviD\nDuration : 1h 30mn\nBit rate : 940 Kbps\nWidth : 640 pixels\nHeight : 272 pixels\nDisplay aspect ratio : 2.35:1\nFrame rate : 23.976 fps\nColor space : YUV\nChroma subsampling : 4:2:0\nBit depth : 8 bits\nScan type : Progressive\nCompression mode : Lossy\nBits/(Pixel*Frame) : 0.225\nStream size : 608 MiB (87%)\nWriting library : XviD 64\n\nAudio\nID : 1\nFormat : MPEG Audio\nFormat version : Version 1\nFormat profile : Layer 3\nMode : Joint stereo\nMode extension : MS Stereo\nCodec ID : 55\nCodec ID/Hint : MP3\nDuration : 1h 30mn\nBit rate mode : Constant\nBit rate : 128 Kbps\nChannel(s) : 2 channels\nSampling rate : 48.0 KHz\nCompression mode : Lossy\nStream size : 82.8 MiB (12%)\nAlignment : Split accross interleaves\nInterleave, duration : 42 ms (1.00 video frame)\nInterleave, preload duration : 500 ms\nWriting library : LAME3.98\n\nPlot\nA gay Brit living in New York is deprived of his immigration status, and risks losing his family and life in the U.S. He marries his lesbian best friend to remain in the country and stay with his family, but things get complicated when he meets the love of his life and is forced to make an impossible choice.\n &lt;a href=&quot;\nhttp://www.shotpix.com/images/64304960662350190235.png&quot; rel=&quot;nofollow&quot; target=&quot;_NEW&quot;&gt;\nhttp://www.shotpix.com/images/64304960662350190235.png&lt;/a&gt; &lt;a href=&quot;\nhttp://www.shotpix.com/images/69269429256317214177.png&quot; rel=&quot;nofollow&quot; target=&quot;_NEW&quot;&gt;\nhttp://www.shotpix.com/images/69269429256317214177.png&lt;/a&gt; &lt;a href=&quot;\nhttp://www.shotpix.com/images/52580862755091401279.png&quot; rel=&quot;nofollow&quot; target=&quot;_NEW&quot;&gt;\nhttp://www.shotpix.com/images/52580862755091401279.png&lt;/a&gt;\n","torrent":{"xt":"urn:btih:9c1d5258cb15d8f4e5090d47c3833ef820492e92","amp;dn":"I.Do.2012.WEBRip+XViD+juggs","amp;tr":["udp%3A%2F%2Ftracker.openbittorrent.com%3A80","udp%3A%2F%2Fopen.demonii.com%3A1337","udp%3A%2F%2Ftracker.coppersurfer.tk%3A6969","udp%3A%2F%2Fexodus.desync.com%3A6969"],"infoHash":"9c1d5258cb15d8f4e5090d47c3833ef820492e92","infoHashBuffer":{"type":"Buffer","data":[156,29,82,88,203,21,216,244,229,9,13,71,195,131,62,248,32,73,46,146]},"announce":[],"urlList":[]}}